<svg width="1600" height="1200" viewBox="0 0 1600 1200" fill="none" xmlns="http://www.w3.org/2000/svg">
<g clip-path="url(#clip0_1_3)">
<rect width="1600" height="1200" rx="150" fill="#86B4FF"/>
<path d="M1048.11 577.752C1088 601.674 1087.52 659.649 1047.23 682.899L749.074 854.967C708.21 878.55 657.19 848.801 657.586 801.622L660.517 452.503C660.913 405.324 712.426 376.436 752.888 400.702L1048.11 577.752Z" fill="white"/>
<path d="M1046.15 559.368C1078.84 578.976 1078.44 626.496 1045.42 645.553L714.415 836.581C680.92 855.912 639.1 831.527 639.424 792.856L642.678 405.269C643.003 366.598 685.226 342.919 718.392 362.809L1046.15 559.368Z" fill="#86B4FF"/>
<path d="M1027.15 531.368C1059.84 550.976 1059.44 598.496 1026.42 617.553L695.415 808.581C661.92 827.912 620.1 803.527 620.424 764.856L623.678 377.269C624.003 338.598 666.226 314.919 699.392 334.809L1027.15 531.368Z" fill="white"/>
</g>
<defs>
<clipPath id="clip0_1_3">
<rect width="1600" height="1200" fill="white"/>
</clipPath>
</defs>
</svg>
